<mxfile host="Electron" agent="Mozilla/5.0 (Windows NT 10.0; Win64; x64) AppleWebKit/537.36 (KHTML, like Gecko) draw.io/24.7.17 Chrome/128.0.6613.36 Electron/32.0.1 Safari/537.36" version="24.7.17">
  <diagram name="PÃ¡gina-1" id="eEgXivkGz5oXS91oUb5u">
    <mxGraphModel dx="880" dy="532" grid="1" gridSize="10" guides="1" tooltips="1" connect="1" arrows="1" fold="1" page="1" pageScale="1" pageWidth="827" pageHeight="1169" math="0" shadow="0">
      <root>
        <mxCell id="0" />
        <mxCell id="1" parent="0" />
        <mxCell id="TCd8SrbXJx0UTVbpMTuR-1" value="" style="endArrow=none;html=1;rounded=0;" parent="1" edge="1">
          <mxGeometry width="50" height="50" relative="1" as="geometry">
            <mxPoint x="40" y="260" as="sourcePoint" />
            <mxPoint x="40" y="180" as="targetPoint" />
          </mxGeometry>
        </mxCell>
        <mxCell id="TCd8SrbXJx0UTVbpMTuR-2" value="" style="endArrow=classic;html=1;rounded=0;" parent="1" edge="1">
          <mxGeometry width="50" height="50" relative="1" as="geometry">
            <mxPoint x="40" y="220" as="sourcePoint" />
            <mxPoint x="100" y="220" as="targetPoint" />
          </mxGeometry>
        </mxCell>
        <mxCell id="TCd8SrbXJx0UTVbpMTuR-3" value="Llega&lt;div&gt;un Cliente&lt;/div&gt;" style="text;html=1;align=center;verticalAlign=middle;resizable=0;points=[];autosize=1;strokeColor=none;fillColor=none;" parent="1" vertex="1">
          <mxGeometry y="130" width="80" height="40" as="geometry" />
        </mxCell>
        <mxCell id="TCd8SrbXJx0UTVbpMTuR-4" value="" style="ellipse;whiteSpace=wrap;html=1;aspect=fixed;" parent="1" vertex="1">
          <mxGeometry x="100" y="200" width="40" height="40" as="geometry" />
        </mxCell>
        <mxCell id="TCd8SrbXJx0UTVbpMTuR-5" value="" style="endArrow=none;html=1;rounded=0;" parent="1" edge="1">
          <mxGeometry width="50" height="50" relative="1" as="geometry">
            <mxPoint x="180" y="260" as="sourcePoint" />
            <mxPoint x="180" y="180" as="targetPoint" />
          </mxGeometry>
        </mxCell>
        <mxCell id="TCd8SrbXJx0UTVbpMTuR-6" value="" style="endArrow=classic;html=1;rounded=0;" parent="1" edge="1">
          <mxGeometry width="50" height="50" relative="1" as="geometry">
            <mxPoint x="180" y="220" as="sourcePoint" />
            <mxPoint x="240" y="220" as="targetPoint" />
          </mxGeometry>
        </mxCell>
        <mxCell id="TCd8SrbXJx0UTVbpMTuR-7" value="" style="endArrow=classic;html=1;rounded=0;entryX=0;entryY=0.5;entryDx=0;entryDy=0;" parent="1" edge="1">
          <mxGeometry width="50" height="50" relative="1" as="geometry">
            <mxPoint x="140" y="219.57999999999998" as="sourcePoint" />
            <mxPoint x="180" y="219.57999999999998" as="targetPoint" />
          </mxGeometry>
        </mxCell>
        <mxCell id="TCd8SrbXJx0UTVbpMTuR-8" value="Cliente Esperando" style="text;html=1;align=center;verticalAlign=middle;resizable=0;points=[];autosize=1;strokeColor=none;fillColor=none;" parent="1" vertex="1">
          <mxGeometry x="50" y="240" width="120" height="30" as="geometry" />
        </mxCell>
        <mxCell id="TCd8SrbXJx0UTVbpMTuR-9" value="&lt;h6&gt;&lt;span style=&quot;font-weight: normal;&quot;&gt;El Cliente&lt;br&gt;Ocupa una Silla&lt;/span&gt;&lt;/h6&gt;" style="text;html=1;align=left;verticalAlign=middle;resizable=0;points=[];autosize=1;strokeColor=none;fillColor=none;" parent="1" vertex="1">
          <mxGeometry x="180" y="130" width="80" height="70" as="geometry" />
        </mxCell>
        <mxCell id="TCd8SrbXJx0UTVbpMTuR-10" value="" style="ellipse;whiteSpace=wrap;html=1;aspect=fixed;" parent="1" vertex="1">
          <mxGeometry x="240" y="200" width="40" height="40" as="geometry" />
        </mxCell>
        <mxCell id="TCd8SrbXJx0UTVbpMTuR-11" value="" style="endArrow=none;html=1;rounded=0;" parent="1" edge="1">
          <mxGeometry width="50" height="50" relative="1" as="geometry">
            <mxPoint x="340" y="260" as="sourcePoint" />
            <mxPoint x="340" y="180" as="targetPoint" />
          </mxGeometry>
        </mxCell>
        <mxCell id="TCd8SrbXJx0UTVbpMTuR-12" value="" style="endArrow=classic;html=1;rounded=0;" parent="1" edge="1">
          <mxGeometry width="50" height="50" relative="1" as="geometry">
            <mxPoint x="340" y="220" as="sourcePoint" />
            <mxPoint x="400" y="220" as="targetPoint" />
          </mxGeometry>
        </mxCell>
        <mxCell id="TCd8SrbXJx0UTVbpMTuR-13" value="" style="endArrow=classic;html=1;rounded=0;" parent="1" edge="1">
          <mxGeometry width="50" height="50" relative="1" as="geometry">
            <mxPoint x="280" y="219.57999999999998" as="sourcePoint" />
            <mxPoint x="340" y="220" as="targetPoint" />
          </mxGeometry>
        </mxCell>
        <mxCell id="TCd8SrbXJx0UTVbpMTuR-14" value="Cliente Esperando&lt;div&gt;En Silla&lt;/div&gt;" style="text;html=1;align=center;verticalAlign=middle;resizable=0;points=[];autosize=1;strokeColor=none;fillColor=none;" parent="1" vertex="1">
          <mxGeometry x="190" y="250" width="120" height="40" as="geometry" />
        </mxCell>
        <mxCell id="TCd8SrbXJx0UTVbpMTuR-17" style="edgeStyle=orthogonalEdgeStyle;rounded=0;orthogonalLoop=1;jettySize=auto;html=1;endArrow=none;endFill=0;startArrow=classic;startFill=1;curved=1;" parent="1" source="TCd8SrbXJx0UTVbpMTuR-15" edge="1">
          <mxGeometry relative="1" as="geometry">
            <mxPoint x="350" y="190" as="targetPoint" />
          </mxGeometry>
        </mxCell>
        <mxCell id="TCd8SrbXJx0UTVbpMTuR-18" style="edgeStyle=orthogonalEdgeStyle;rounded=0;orthogonalLoop=1;jettySize=auto;html=1;curved=1;" parent="1" source="TCd8SrbXJx0UTVbpMTuR-15" edge="1">
          <mxGeometry relative="1" as="geometry">
            <mxPoint x="170" y="190" as="targetPoint" />
          </mxGeometry>
        </mxCell>
        <mxCell id="TCd8SrbXJx0UTVbpMTuR-15" value="OOO" style="ellipse;whiteSpace=wrap;html=1;aspect=fixed;" parent="1" vertex="1">
          <mxGeometry x="240" y="80" width="40" height="40" as="geometry" />
        </mxCell>
        <mxCell id="TCd8SrbXJx0UTVbpMTuR-16" value="Silla Libre" style="text;html=1;align=center;verticalAlign=middle;resizable=0;points=[];autosize=1;strokeColor=none;fillColor=none;" parent="1" vertex="1">
          <mxGeometry x="220" y="50" width="80" height="30" as="geometry" />
        </mxCell>
        <mxCell id="TCd8SrbXJx0UTVbpMTuR-19" value="&lt;h5 style=&quot;font-size: 7px;&quot;&gt;&lt;span style=&quot;font-weight: normal;&quot;&gt;Comienza&lt;br&gt;el Corte&lt;/span&gt;&lt;/h5&gt;" style="text;html=1;align=left;verticalAlign=middle;resizable=0;points=[];autosize=1;strokeColor=none;fillColor=none;" parent="1" vertex="1">
          <mxGeometry x="350" y="140" width="60" height="50" as="geometry" />
        </mxCell>
        <mxCell id="TCd8SrbXJx0UTVbpMTuR-20" value="" style="ellipse;whiteSpace=wrap;html=1;aspect=fixed;" parent="1" vertex="1">
          <mxGeometry x="400" y="200" width="40" height="40" as="geometry" />
        </mxCell>
        <mxCell id="TCd8SrbXJx0UTVbpMTuR-21" value="" style="endArrow=none;html=1;rounded=0;" parent="1" edge="1">
          <mxGeometry width="50" height="50" relative="1" as="geometry">
            <mxPoint x="500" y="260" as="sourcePoint" />
            <mxPoint x="500" y="180" as="targetPoint" />
          </mxGeometry>
        </mxCell>
        <mxCell id="TCd8SrbXJx0UTVbpMTuR-22" value="" style="endArrow=classic;html=1;rounded=0;" parent="1" edge="1">
          <mxGeometry width="50" height="50" relative="1" as="geometry">
            <mxPoint x="500" y="220" as="sourcePoint" />
            <mxPoint x="560" y="220" as="targetPoint" />
          </mxGeometry>
        </mxCell>
        <mxCell id="TCd8SrbXJx0UTVbpMTuR-23" value="" style="endArrow=classic;html=1;rounded=0;" parent="1" edge="1">
          <mxGeometry width="50" height="50" relative="1" as="geometry">
            <mxPoint x="440" y="219.57999999999998" as="sourcePoint" />
            <mxPoint x="500" y="220" as="targetPoint" />
          </mxGeometry>
        </mxCell>
        <mxCell id="TCd8SrbXJx0UTVbpMTuR-24" value="Cortando Cabello&lt;div&gt;del Cliente&lt;/div&gt;" style="text;html=1;align=center;verticalAlign=middle;resizable=0;points=[];autosize=1;strokeColor=none;fillColor=none;" parent="1" vertex="1">
          <mxGeometry x="360" y="250" width="120" height="40" as="geometry" />
        </mxCell>
        <mxCell id="TCd8SrbXJx0UTVbpMTuR-25" value="&lt;h6&gt;&lt;br&gt;&lt;/h6&gt;" style="text;html=1;align=left;verticalAlign=middle;resizable=0;points=[];autosize=1;strokeColor=none;fillColor=none;" parent="1" vertex="1">
          <mxGeometry x="340" y="135" width="20" height="60" as="geometry" />
        </mxCell>
        <mxCell id="TCd8SrbXJx0UTVbpMTuR-26" style="edgeStyle=orthogonalEdgeStyle;rounded=0;orthogonalLoop=1;jettySize=auto;html=1;endArrow=none;endFill=0;startArrow=classic;startFill=1;curved=1;" parent="1" source="TCd8SrbXJx0UTVbpMTuR-28" edge="1">
          <mxGeometry relative="1" as="geometry">
            <mxPoint x="510" y="190" as="targetPoint" />
          </mxGeometry>
        </mxCell>
        <mxCell id="TCd8SrbXJx0UTVbpMTuR-27" style="edgeStyle=orthogonalEdgeStyle;rounded=0;orthogonalLoop=1;jettySize=auto;html=1;curved=1;" parent="1" source="TCd8SrbXJx0UTVbpMTuR-28" edge="1">
          <mxGeometry relative="1" as="geometry">
            <mxPoint x="330" y="190" as="targetPoint" />
          </mxGeometry>
        </mxCell>
        <mxCell id="TCd8SrbXJx0UTVbpMTuR-28" value="OO" style="ellipse;whiteSpace=wrap;html=1;aspect=fixed;" parent="1" vertex="1">
          <mxGeometry x="400" y="80" width="40" height="40" as="geometry" />
        </mxCell>
        <mxCell id="TCd8SrbXJx0UTVbpMTuR-30" value="Peluquero Libre" style="text;html=1;align=center;verticalAlign=middle;resizable=0;points=[];autosize=1;strokeColor=none;fillColor=none;" parent="1" vertex="1">
          <mxGeometry x="370" y="50" width="110" height="30" as="geometry" />
        </mxCell>
        <mxCell id="TCd8SrbXJx0UTVbpMTuR-34" value="&lt;h5 style=&quot;font-size: 7px;&quot;&gt;&lt;span style=&quot;font-weight: normal;&quot;&gt;Finaliza&lt;br&gt;el Corte&lt;/span&gt;&lt;/h5&gt;" style="text;html=1;align=left;verticalAlign=middle;resizable=0;points=[];autosize=1;strokeColor=none;fillColor=none;" parent="1" vertex="1">
          <mxGeometry x="470" y="140" width="50" height="50" as="geometry" />
        </mxCell>
        <mxCell id="TCd8SrbXJx0UTVbpMTuR-36" value="Cliente Esperando&lt;div&gt;a pagar&lt;/div&gt;" style="text;html=1;align=center;verticalAlign=middle;resizable=0;points=[];autosize=1;strokeColor=none;fillColor=none;" parent="1" vertex="1">
          <mxGeometry x="510" y="240" width="120" height="40" as="geometry" />
        </mxCell>
        <mxCell id="TCd8SrbXJx0UTVbpMTuR-37" value="" style="ellipse;whiteSpace=wrap;html=1;aspect=fixed;" parent="1" vertex="1">
          <mxGeometry x="560" y="200" width="40" height="40" as="geometry" />
        </mxCell>
        <mxCell id="TCd8SrbXJx0UTVbpMTuR-38" value="" style="endArrow=none;html=1;rounded=0;" parent="1" edge="1">
          <mxGeometry width="50" height="50" relative="1" as="geometry">
            <mxPoint x="640" y="260" as="sourcePoint" />
            <mxPoint x="640" y="180" as="targetPoint" />
          </mxGeometry>
        </mxCell>
        <mxCell id="TCd8SrbXJx0UTVbpMTuR-39" value="" style="endArrow=classic;html=1;rounded=0;" parent="1" edge="1">
          <mxGeometry width="50" height="50" relative="1" as="geometry">
            <mxPoint x="640" y="220" as="sourcePoint" />
            <mxPoint x="700" y="220" as="targetPoint" />
          </mxGeometry>
        </mxCell>
        <mxCell id="TCd8SrbXJx0UTVbpMTuR-40" value="" style="endArrow=classic;html=1;rounded=0;entryX=0;entryY=0.5;entryDx=0;entryDy=0;" parent="1" edge="1">
          <mxGeometry width="50" height="50" relative="1" as="geometry">
            <mxPoint x="600" y="219.57999999999998" as="sourcePoint" />
            <mxPoint x="640" y="219.57999999999998" as="targetPoint" />
          </mxGeometry>
        </mxCell>
        <mxCell id="TCd8SrbXJx0UTVbpMTuR-45" style="edgeStyle=orthogonalEdgeStyle;rounded=0;orthogonalLoop=1;jettySize=auto;html=1;" parent="1" source="TCd8SrbXJx0UTVbpMTuR-41" edge="1">
          <mxGeometry relative="1" as="geometry">
            <mxPoint x="790" y="220" as="targetPoint" />
          </mxGeometry>
        </mxCell>
        <mxCell id="TCd8SrbXJx0UTVbpMTuR-41" value="" style="ellipse;whiteSpace=wrap;html=1;aspect=fixed;" parent="1" vertex="1">
          <mxGeometry x="700" y="200" width="40" height="40" as="geometry" />
        </mxCell>
        <mxCell id="TCd8SrbXJx0UTVbpMTuR-42" value="Cliente Pagando" style="text;html=1;align=center;verticalAlign=middle;resizable=0;points=[];autosize=1;strokeColor=none;fillColor=none;" parent="1" vertex="1">
          <mxGeometry x="660" y="240" width="110" height="30" as="geometry" />
        </mxCell>
        <mxCell id="TCd8SrbXJx0UTVbpMTuR-43" value="" style="endArrow=none;html=1;rounded=0;" parent="1" edge="1">
          <mxGeometry width="50" height="50" relative="1" as="geometry">
            <mxPoint x="790" y="260" as="sourcePoint" />
            <mxPoint x="790" y="180" as="targetPoint" />
          </mxGeometry>
        </mxCell>
        <mxCell id="TCd8SrbXJx0UTVbpMTuR-46" value="&lt;h5 style=&quot;font-size: 7px;&quot;&gt;&lt;span style=&quot;font-weight: 400;&quot;&gt;Comienza el Pago&lt;/span&gt;&lt;/h5&gt;" style="text;html=1;align=left;verticalAlign=middle;resizable=0;points=[];autosize=1;strokeColor=none;fillColor=none;" parent="1" vertex="1">
          <mxGeometry x="630" y="145" width="80" height="50" as="geometry" />
        </mxCell>
        <mxCell id="TCd8SrbXJx0UTVbpMTuR-47" value="&lt;h6&gt;&lt;br&gt;&lt;/h6&gt;" style="text;html=1;align=left;verticalAlign=middle;resizable=0;points=[];autosize=1;strokeColor=none;fillColor=none;" parent="1" vertex="1">
          <mxGeometry x="640" y="135" width="20" height="60" as="geometry" />
        </mxCell>
        <mxCell id="TCd8SrbXJx0UTVbpMTuR-48" style="edgeStyle=orthogonalEdgeStyle;rounded=0;orthogonalLoop=1;jettySize=auto;html=1;endArrow=none;endFill=0;startArrow=classic;startFill=1;curved=1;" parent="1" source="TCd8SrbXJx0UTVbpMTuR-50" edge="1">
          <mxGeometry relative="1" as="geometry">
            <mxPoint x="810" y="190" as="targetPoint" />
          </mxGeometry>
        </mxCell>
        <mxCell id="TCd8SrbXJx0UTVbpMTuR-49" style="edgeStyle=orthogonalEdgeStyle;rounded=0;orthogonalLoop=1;jettySize=auto;html=1;curved=1;" parent="1" source="TCd8SrbXJx0UTVbpMTuR-50" edge="1">
          <mxGeometry relative="1" as="geometry">
            <mxPoint x="630" y="190" as="targetPoint" />
          </mxGeometry>
        </mxCell>
        <mxCell id="TCd8SrbXJx0UTVbpMTuR-50" value="O" style="ellipse;whiteSpace=wrap;html=1;aspect=fixed;" parent="1" vertex="1">
          <mxGeometry x="700" y="80" width="40" height="40" as="geometry" />
        </mxCell>
        <mxCell id="TCd8SrbXJx0UTVbpMTuR-51" value="&lt;h5 style=&quot;font-size: 8px;&quot;&gt;&lt;span style=&quot;font-weight: normal;&quot;&gt;Se retira el&amp;nbsp;&lt;br&gt;Cliente del local&lt;/span&gt;&lt;/h5&gt;" style="text;html=1;align=left;verticalAlign=middle;resizable=0;points=[];autosize=1;strokeColor=none;fillColor=none;" parent="1" vertex="1">
          <mxGeometry x="920" y="120" width="80" height="60" as="geometry" />
        </mxCell>
        <mxCell id="TCd8SrbXJx0UTVbpMTuR-52" value="Caja Libre" style="text;html=1;align=center;verticalAlign=middle;resizable=0;points=[];autosize=1;strokeColor=none;fillColor=none;" parent="1" vertex="1">
          <mxGeometry x="680" y="48" width="80" height="30" as="geometry" />
        </mxCell>
        <mxCell id="f6NyBKpb2_nHmrFurdN3-1" value="" style="endArrow=none;html=1;rounded=0;" edge="1" parent="1">
          <mxGeometry width="50" height="50" relative="1" as="geometry">
            <mxPoint x="790" y="260" as="sourcePoint" />
            <mxPoint x="790" y="180" as="targetPoint" />
          </mxGeometry>
        </mxCell>
        <mxCell id="f6NyBKpb2_nHmrFurdN3-2" value="" style="endArrow=classic;html=1;rounded=0;" edge="1" parent="1">
          <mxGeometry width="50" height="50" relative="1" as="geometry">
            <mxPoint x="790" y="220" as="sourcePoint" />
            <mxPoint x="850" y="220" as="targetPoint" />
          </mxGeometry>
        </mxCell>
        <mxCell id="f6NyBKpb2_nHmrFurdN3-3" style="edgeStyle=orthogonalEdgeStyle;rounded=0;orthogonalLoop=1;jettySize=auto;html=1;" edge="1" parent="1" source="f6NyBKpb2_nHmrFurdN3-4">
          <mxGeometry relative="1" as="geometry">
            <mxPoint x="940" y="220" as="targetPoint" />
          </mxGeometry>
        </mxCell>
        <mxCell id="f6NyBKpb2_nHmrFurdN3-4" value="" style="ellipse;whiteSpace=wrap;html=1;aspect=fixed;" vertex="1" parent="1">
          <mxGeometry x="850" y="200" width="40" height="40" as="geometry" />
        </mxCell>
        <mxCell id="f6NyBKpb2_nHmrFurdN3-5" value="Cliente Esperando" style="text;html=1;align=center;verticalAlign=middle;resizable=0;points=[];autosize=1;strokeColor=none;fillColor=none;" vertex="1" parent="1">
          <mxGeometry x="805" y="240" width="120" height="30" as="geometry" />
        </mxCell>
        <mxCell id="f6NyBKpb2_nHmrFurdN3-6" value="" style="endArrow=none;html=1;rounded=0;" edge="1" parent="1">
          <mxGeometry width="50" height="50" relative="1" as="geometry">
            <mxPoint x="940" y="260" as="sourcePoint" />
            <mxPoint x="940" y="180" as="targetPoint" />
          </mxGeometry>
        </mxCell>
        <mxCell id="f6NyBKpb2_nHmrFurdN3-7" value="&lt;h5 style=&quot;font-size: 7px;&quot;&gt;&lt;span style=&quot;font-weight: 400;&quot;&gt;termina el pago&lt;/span&gt;&lt;/h5&gt;" style="text;html=1;align=left;verticalAlign=middle;resizable=0;points=[];autosize=1;strokeColor=none;fillColor=none;" vertex="1" parent="1">
          <mxGeometry x="740" y="145" width="70" height="50" as="geometry" />
        </mxCell>
      </root>
    </mxGraphModel>
  </diagram>
</mxfile>
